<svg xmlns="http://www.w3.org/2000/svg" width="260" height="260" viewBox="0 0 260 260" fill="none">
  <path d="M229 34C167 71 112 132 75 229" stroke="#7896B9" stroke-width="2" stroke-linecap="round" opacity=".78"/>
  <path d="M198 52C187 42 187 27 195 16C209 24 211 42 198 52Z" fill="#A9C1D8" opacity=".82"/>
  <path d="M173 76C158 67 154 50 161 35C178 42 185 63 173 76Z" fill="#DDEAF3" stroke="#7896B9" stroke-width="1" opacity=".88"/>
  <path d="M146 104C130 95 125 77 132 62C150 70 158 91 146 104Z" fill="#A9C1D8" opacity=".75"/>
  <path d="M122 135C104 127 97 108 102 91C123 97 134 121 122 135Z" fill="#E8EEF4" stroke="#7896B9" stroke-width="1" opacity=".9"/>
  <path d="M99 167C82 161 73 143 77 126C98 131 111 153 99 167Z" fill="#A9C1D8" opacity=".72"/>
  <path d="M70 219C49 215 36 198 37 178C62 181 79 201 70 219Z" fill="#DDEAF3" stroke="#7896B9" stroke-width="1" opacity=".86"/>
  <circle cx="212" cy="73" r="4" fill="#1E3A5F" opacity=".65"/>
  <circle cx="185" cy="102" r="3.5" fill="#1E3A5F" opacity=".55"/>
  <circle cx="154" cy="130" r="3.5" fill="#1E3A5F" opacity=".5"/>
  <circle cx="118" cy="183" r="3" fill="#1E3A5F" opacity=".45"/>
</svg>
