<svg xmlns="http://www.w3.org/2000/svg" width="360" height="360" viewBox="0 0 360 360" fill="none">
  <g opacity="0.96">
    <path d="M58 308C84 252 121 206 166 171C211 136 258 111 319 91" stroke="#6F8EB4" stroke-width="3" stroke-linecap="round" opacity=".65"/>
    <path d="M71 292C96 233 134 183 176 150" stroke="#A9C1D8" stroke-width="2.6" stroke-linecap="round" opacity=".58"/>
    <path d="M94 273C137 237 179 208 219 191" stroke="#8AA6C6" stroke-width="2.2" stroke-linecap="round" opacity=".45"/>

    <g transform="translate(220 64)">
      <circle cx="52" cy="50" r="26" fill="#FFFFFF" stroke="#7F9CBE" stroke-width="2"/>
      <path d="M52 20C59 28 65 37 66 47C67 57 61 65 52 71C43 65 37 57 38 47C39 37 45 28 52 20Z" fill="#DDEAF3"/>
      <path d="M27 50C35 43 44 38 52 37C60 38 69 43 77 50C69 58 60 63 52 64C44 63 35 58 27 50Z" fill="#A9C1D8" opacity=".8"/>
      <path d="M35 31C43 34 49 39 52 45C46 48 39 49 31 47C29 40 31 35 35 31Z" fill="#EAF1F7"/>
      <path d="M69 31C73 35 75 40 73 47C65 49 58 48 52 45C55 39 61 34 69 31Z" fill="#EAF1F7"/>
      <circle cx="52" cy="50" r="9" fill="#1E3A5F" opacity=".8"/>
      <circle cx="48" cy="48" r="1.8" fill="#D8E4EF"/>
      <circle cx="55" cy="52" r="1.8" fill="#D8E4EF"/>
    </g>

    <g transform="translate(157 103)">
      <path d="M64 12C76 16 88 25 96 37C104 50 106 64 102 77C90 84 75 86 60 82C44 78 32 69 24 56C16 43 15 28 19 14C32 7 48 6 64 12Z" fill="#7E9BC0" opacity=".84"/>
      <path d="M61 24C69 30 76 37 79 45C71 50 61 53 49 53C39 52 31 48 24 43C28 35 34 29 42 24C48 20 55 19 61 24Z" fill="#DDEAF3"/>
      <path d="M82 38C86 43 89 50 89 58C83 64 74 69 63 71C57 62 54 54 54 48C60 41 69 37 82 38Z" fill="#A9C1D8"/>
      <path d="M31 35C40 35 47 39 53 47C52 57 47 65 38 72C27 69 18 63 12 55C15 46 21 40 31 35Z" fill="#EDF3F8"/>
      <circle cx="57" cy="52" r="8" fill="#1E3A5F" opacity=".72"/>
      <circle cx="54" cy="50" r="1.7" fill="#DDEAF3"/>
      <circle cx="60" cy="54" r="1.7" fill="#DDEAF3"/>
    </g>

    <g transform="translate(34 178)">
      <path d="M72 14C83 18 92 27 99 38C107 50 110 64 108 77C98 84 86 87 72 85C57 83 44 75 35 63C27 51 24 38 25 24C38 16 55 11 72 14Z" fill="#B8CCE1" opacity=".92"/>
      <path d="M73 25C80 31 87 39 90 48C82 53 72 56 60 56C49 55 40 52 33 46C38 38 44 31 51 26C58 23 66 22 73 25Z" fill="#FFFFFF"/>
      <path d="M48 32C57 32 64 36 70 44C69 54 64 63 55 70C44 67 35 61 29 53C32 44 38 37 48 32Z" fill="#DDEAF3"/>
      <path d="M85 36C89 41 92 48 92 56C86 62 78 67 68 69C61 61 58 53 58 46C64 40 73 36 85 36Z" fill="#A9C1D8"/>
      <circle cx="65" cy="54" r="8" fill="#1E3A5F" opacity=".7"/>
    </g>

    <g transform="translate(239 153)">
      <path d="M20 68C9 57 5 42 8 28C22 22 36 24 48 34C61 44 68 58 69 72C58 81 45 84 32 81C27 77 23 73 20 68Z" fill="#F9FBFD" stroke="#7F9CBE" stroke-width="2"/>
      <path d="M22 64C30 63 38 59 45 52C52 45 56 38 57 29C51 25 44 24 36 27C28 30 21 36 16 44C12 52 11 59 13 66C16 67 19 66 22 64Z" fill="#DDEAF3"/>
      <path d="M31 80C33 69 38 59 47 49" stroke="#7F9CBE" stroke-width="2" stroke-linecap="round"/>
    </g>

    <g transform="translate(118 228)">
      <path d="M20 57C12 49 9 38 11 26C22 21 33 24 42 31C52 39 58 49 60 60C52 67 42 70 32 68C27 66 23 62 20 57Z" fill="#FFFFFF" stroke="#7F9CBE" stroke-width="1.8"/>
      <path d="M21 54C28 53 35 49 42 43C48 37 52 31 53 24C48 21 42 20 36 22C29 25 23 30 18 37C15 44 14 50 15 56C17 57 19 56 21 54Z" fill="#DDEAF3"/>
      <path d="M28 66C31 58 35 50 42 43" stroke="#7F9CBE" stroke-width="1.8" stroke-linecap="round"/>
    </g>

    <g fill="#7896B9" opacity=".76">
      <circle cx="256" cy="120" r="4"/>
      <circle cx="286" cy="141" r="4"/>
      <circle cx="207" cy="200" r="3.5"/>
      <circle cx="181" cy="239" r="3.5"/>
      <circle cx="96" cy="245" r="4"/>
      <circle cx="69" cy="269" r="3.5"/>
    </g>

    <g stroke="#7F9CBE" stroke-width="2" stroke-linecap="round" opacity=".82">
      <path d="M287 106C297 97 308 94 321 95"/>
      <path d="M299 120C309 113 320 112 331 114"/>
      <path d="M232 217C242 210 252 208 264 209"/>
      <path d="M80 224C66 218 53 218 40 222"/>
    </g>

    <g fill="#A9C1D8" opacity=".82">
      <path d="M303 91C292 86 286 77 286 67C299 67 308 73 313 84C309 88 306 90 303 91Z"/>
      <path d="M319 111C308 108 300 100 298 89C311 87 321 92 327 102C325 107 322 110 319 111Z"/>
      <path d="M52 221C45 208 45 195 51 184C61 192 65 203 63 216C58 219 55 221 52 221Z"/>
      <path d="M31 225C24 214 21 201 24 189C35 194 42 204 43 217C38 222 34 224 31 225Z"/>
      <path d="M255 208C247 195 245 182 250 170C261 177 267 188 267 201C262 205 258 207 255 208Z"/>
      <path d="M149 236C142 225 140 214 144 203C154 209 160 219 161 231C157 234 153 236 149 236Z"/>
    </g>
  </g>
</svg>
